<svg xmlns="http://www.w3.org/2000/svg" xmlns:xlink="http://www.w3.org/1999/xlink" width="500" zoomAndPan="magnify" viewBox="0 0 375 374.999991" height="500" preserveAspectRatio="xMidYMid meet" version="1.0"><path fill="#f4f6fc" d="M 232.589844 203.457031 L 243.410156 191.453125 C 244.804688 189.933594 246.960938 189.339844 248.945312 189.890625 C 297.003906 202.851562 324.742188 160.992188 315.117188 127.1875 C 314.449219 124.851562 311.515625 124.066406 309.796875 125.785156 L 282.246094 153.335938 C 280.132812 155.449219 276.710938 155.449219 274.554688 153.335938 L 252.03125 130.769531 C 249.917969 128.65625 249.917969 125.234375 252.03125 123.078125 L 280.023438 95.085938 C 281.625 93.484375 281.085938 90.742188 278.992188 89.890625 C 249.484375 77.90625 201.191406 105.308594 214.96875 155.914062 C 215.519531 157.941406 214.96875 160.054688 213.40625 161.449219 C 212.898438 161.914062 207.996094 166.351562 200.472656 173.15625 L 164.03125 138.8125 L 167.792969 135.050781 C 173.246094 129.597656 173.253906 120.769531 167.792969 115.320312 L 157.347656 104.871094 C 155.191406 102.714844 155.171875 99.214844 157.335938 97.046875 C 167.648438 86.734375 180.890625 77.160156 196.703125 68.589844 C 199.128906 67.277344 200.332031 64.605469 199.707031 61.9375 C 199.070312 59.261719 196.785156 57.402344 194.011719 57.316406 C 170.996094 56.578125 147.261719 64.667969 125.542969 84.136719 L 82.953125 122.289062 C 81.136719 123.914062 81.074219 126.71875 82.78125 128.425781 L 90.085938 135.734375 C 92.003906 137.648438 92.011719 140.75 90.085938 142.675781 C 88.167969 144.589844 85.0625 144.585938 83.148438 142.675781 L 75.839844 135.367188 C 74.191406 133.714844 71.515625 133.714844 69.867188 135.367188 L 53.710938 151.515625 C 49.824219 155.414062 49.824219 161.75 53.71875 165.644531 L 88.390625 200.316406 C 90.277344 202.207031 92.789062 203.246094 95.457031 203.246094 C 98.128906 203.246094 100.640625 202.207031 102.523438 200.316406 L 117.820312 185.023438 C 118.613281 184.230469 119.058594 183.152344 119.058594 182.035156 C 119.058594 180.914062 118.613281 179.839844 117.820312 179.046875 L 109.917969 171.144531 C 108.046875 169.273438 108.042969 166.246094 109.917969 164.371094 C 111.78125 162.5 114.824219 162.507812 116.691406 164.371094 L 124.59375 172.277344 C 126.175781 173.859375 128.984375 173.859375 130.566406 172.277344 L 131.542969 171.300781 L 164.257812 205.992188 C 133.449219 233.925781 99.515625 264.648438 99.515625 264.648438 C 87.21875 275.761719 86.753906 294.949219 98.503906 306.695312 C 110.191406 318.386719 129.421875 318 140.59375 305.597656 L 198.023438 241.828125 L 257.101562 304.5 C 268.210938 316.125 286.492188 316.347656 297.839844 305.089844 C 308.964844 293.878906 308.992188 275.605469 297.289062 264.4375 Z M 129.003906 292.71875 C 124.355469 297.324219 116.789062 297.367188 112.140625 292.761719 C 107.449219 288.070312 107.492188 280.503906 112.140625 275.855469 C 116.789062 271.207031 124.3125 271.207031 129.003906 275.898438 C 133.609375 280.546875 133.609375 288.070312 129.003906 292.71875 Z M 127.582031 163.3125 L 122.664062 158.398438 C 117.507812 153.234375 109.101562 153.230469 103.941406 158.394531 C 98.773438 163.5625 98.753906 171.933594 103.941406 177.117188 L 108.855469 182.035156 L 96.542969 194.34375 C 95.773438 195.125 95.164062 195.140625 94.367188 194.34375 L 59.691406 159.671875 C 59.09375 159.070312 59.09375 158.089844 59.691406 157.488281 L 72.851562 144.332031 L 77.175781 148.652344 C 82.378906 153.855469 90.851562 153.855469 96.0625 148.652344 C 101.285156 143.429688 101.292969 134.984375 96.0625 129.757812 L 91.914062 125.605469 L 131.179688 90.429688 C 146.351562 76.835938 164.089844 67.746094 184.144531 66.023438 C 171.316406 73.710938 160.320312 82.109375 151.359375 91.070312 C 145.894531 96.53125 145.902344 105.386719 151.371094 110.847656 L 161.816406 121.296875 C 163.964844 123.445312 163.972656 126.914062 161.816406 129.070312 C 161.394531 129.496094 127.15625 163.734375 127.582031 163.3125 Z M 291.839844 299.089844 C 284.242188 306.769531 271.261719 307.101562 263.273438 298.667969 C 72.382812 96.117188 217.191406 249.78125 137.546875 165.296875 L 158.023438 144.820312 C 187.320312 172.4375 135.292969 123.394531 291.457031 270.605469 C 299.707031 278.324219 299.652344 291.363281 291.839844 299.089844 Z M 291.839844 299.089844 " fill-opacity="1" fill-rule="nonzero"/><path fill="#f4f6fc" d="M 165.410156 166.703125 C 163.761719 165.054688 161.085938 165.054688 159.4375 166.703125 C 157.785156 168.355469 157.785156 171.03125 159.4375 172.679688 L 179.832031 193.074219 C 181.480469 194.726562 184.15625 194.726562 185.808594 193.074219 C 187.457031 191.425781 187.457031 188.75 185.808594 187.097656 Z M 165.410156 166.703125 " fill-opacity="1" fill-rule="nonzero"/><path fill="#f4f6fc" d="M 226.175781 227.46875 C 226.167969 227.457031 226.15625 227.449219 226.148438 227.4375 L 226.0625 227.351562 C 224.410156 225.699219 221.734375 225.695312 220.085938 227.34375 C 218.433594 228.992188 218.429688 231.667969 220.078125 233.320312 L 220.769531 234.015625 C 222.410156 235.660156 225.082031 235.679688 226.746094 234.027344 C 228.398438 232.378906 228.40625 229.703125 226.753906 228.046875 Z M 226.175781 227.46875 " fill-opacity="1" fill-rule="nonzero"/><path fill="#f4f6fc" d="M 205.777344 207.070312 C 204.125 205.417969 201.453125 205.417969 199.800781 207.070312 C 198.152344 208.71875 198.152344 211.394531 199.800781 213.046875 L 205.546875 218.789062 C 207.195312 220.441406 209.871094 220.441406 211.523438 218.789062 C 213.171875 217.140625 213.171875 214.464844 211.523438 212.8125 Z M 205.777344 207.070312 " fill-opacity="1" fill-rule="nonzero"/><path fill="#f4f6fc" d="M 246.136719 247.433594 C 244.488281 245.785156 241.8125 245.785156 240.164062 247.433594 C 238.511719 249.085938 238.511719 251.761719 240.164062 253.410156 L 260.558594 273.804688 C 262.207031 275.453125 264.882812 275.453125 266.535156 273.804688 C 268.183594 272.152344 268.183594 269.480469 266.535156 267.828125 Z M 246.136719 247.433594 " fill-opacity="1" fill-rule="nonzero"/></svg>