<svg xmlns="http://www.w3.org/2000/svg" xmlns:xlink="http://www.w3.org/1999/xlink" width="500" zoomAndPan="magnify" viewBox="0 0 375 374.999991" height="500" preserveAspectRatio="xMidYMid meet" version="1.0"><rect x="-37.5" width="450" fill="#ffffff" y="-37.499999" height="449.999989" fill-opacity="1"/><rect x="-37.5" width="450" fill="#000000" y="-37.499999" height="449.999989" fill-opacity="1"/><path fill="#f4f6fc" d="M 292.894531 275.855469 L 235.082031 218.039062 C 259.292969 185.53125 256.746094 139.246094 227.25 109.75 C 194.855469 77.355469 142.144531 77.355469 109.75 109.75 C 77.355469 142.144531 77.355469 194.855469 109.75 227.25 C 139.246094 256.746094 185.53125 259.292969 218.039062 235.082031 L 275.855469 292.894531 C 280.5625 297.601562 288.1875 297.601562 292.894531 292.894531 C 297.601562 288.1875 297.601562 280.5625 292.894531 275.855469 Z M 121.113281 215.890625 C 94.980469 189.761719 94.980469 147.242188 121.113281 121.113281 C 147.242188 94.980469 189.761719 94.980469 215.890625 121.113281 C 242.019531 147.242188 242.019531 189.761719 215.890625 215.890625 C 189.761719 242.019531 147.242188 242.019531 121.113281 215.890625 Z M 121.113281 215.890625 " fill-opacity="1" fill-rule="nonzero"/><path fill="#f4f6fc" d="M 116.851562 174.113281 C 114.132812 174.113281 111.929688 171.910156 111.929688 169.191406 C 111.929688 138.363281 137.007812 113.28125 167.835938 113.28125 C 170.554688 113.28125 172.761719 115.488281 172.761719 118.207031 C 172.761719 120.925781 170.554688 123.128906 167.835938 123.128906 C 142.4375 123.128906 121.773438 143.792969 121.773438 169.191406 C 121.773438 171.910156 119.570312 174.113281 116.851562 174.113281 Z M 116.851562 174.113281 " fill-opacity="1" fill-rule="nonzero"/></svg>