<svg xmlns="http://www.w3.org/2000/svg" xmlns:xlink="http://www.w3.org/1999/xlink" width="500" zoomAndPan="magnify" viewBox="0 0 375 374.999991" height="500" preserveAspectRatio="xMidYMid meet" version="1.0"><defs><clipPath id="0b980138d0"><path d="M 62.714844 175 L 88 175 L 88 201 L 62.714844 201 Z M 62.714844 175 " clip-rule="nonzero"/></clipPath><clipPath id="b25bafda81"><path d="M 175 62.714844 L 201 62.714844 L 201 88 L 175 88 Z M 175 62.714844 " clip-rule="nonzero"/></clipPath><clipPath id="50cc130040"><path d="M 287 175 L 312.464844 175 L 312.464844 201 L 287 201 Z M 287 175 " clip-rule="nonzero"/></clipPath><clipPath id="d8f1912e50"><path d="M 175 287 L 201 287 L 201 312.464844 L 175 312.464844 Z M 175 287 " clip-rule="nonzero"/></clipPath></defs><g clip-path="url(#0b980138d0)"><path fill="#000000" d="M 75.296875 200.097656 C 68.273438 200.097656 62.714844 194.390625 62.714844 187.515625 C 62.714844 180.636719 68.273438 175.078125 75.296875 175.078125 C 82.171875 175.078125 87.730469 180.636719 87.730469 187.515625 C 87.730469 194.390625 82.171875 200.097656 75.296875 200.097656 Z M 75.296875 179.90625 C 71.050781 179.90625 67.542969 183.417969 67.542969 187.515625 C 67.542969 191.757812 71.050781 195.121094 75.296875 195.121094 C 79.390625 195.121094 82.902344 191.757812 82.902344 187.515625 C 82.902344 183.417969 79.390625 179.90625 75.296875 179.90625 Z M 75.296875 179.90625 " fill-opacity="1" fill-rule="evenodd"/></g><g clip-path="url(#b25bafda81)"><path fill="#000000" d="M 187.515625 87.730469 C 180.636719 87.730469 175.078125 82.171875 175.078125 75.296875 C 175.078125 68.273438 180.636719 62.714844 187.515625 62.714844 C 194.390625 62.714844 200.097656 68.273438 200.097656 75.296875 C 200.097656 82.171875 194.390625 87.730469 187.515625 87.730469 Z M 187.515625 67.542969 C 183.417969 67.542969 179.90625 71.050781 179.90625 75.296875 C 179.90625 79.390625 183.417969 82.902344 187.515625 82.902344 C 191.757812 82.902344 195.121094 79.390625 195.121094 75.296875 C 195.121094 71.050781 191.757812 67.542969 187.515625 67.542969 Z M 187.515625 67.542969 " fill-opacity="1" fill-rule="evenodd"/></g><path fill="#000000" d="M 85.539062 159.714844 C 78.660156 159.714844 73.101562 154.15625 73.101562 147.28125 C 73.101562 140.257812 78.660156 134.695312 85.539062 134.695312 C 92.414062 134.695312 98.121094 140.257812 98.121094 147.28125 C 98.121094 154.15625 92.414062 159.714844 85.539062 159.714844 Z M 85.539062 139.523438 C 81.292969 139.523438 77.929688 143.035156 77.929688 147.28125 C 77.929688 151.375 81.441406 154.886719 85.539062 154.886719 C 89.78125 154.886719 93.144531 151.375 93.144531 147.28125 C 93.144531 143.035156 89.78125 139.523438 85.539062 139.523438 Z M 85.539062 139.523438 " fill-opacity="1" fill-rule="evenodd"/><path fill="#000000" d="M 139.085938 173.90625 L 117.140625 173.90625 C 115.824219 173.90625 114.652344 172.738281 114.652344 171.421875 L 114.652344 149.621094 L 95.632812 149.621094 C 94.316406 149.621094 93.144531 148.597656 93.144531 147.28125 C 93.144531 145.816406 94.316406 144.792969 95.632812 144.792969 L 117.140625 144.792969 C 118.457031 144.792969 119.628906 145.816406 119.628906 147.28125 L 119.628906 168.933594 L 139.085938 169.078125 C 140.402344 169.078125 141.425781 170.25 141.425781 171.566406 C 141.425781 172.882812 140.402344 173.90625 139.085938 173.90625 Z M 139.085938 173.90625 " fill-opacity="1" fill-rule="evenodd"/><path fill="#000000" d="M 117.140625 235.652344 L 95.632812 235.652344 C 94.316406 235.652344 93.144531 234.625 93.144531 233.308594 C 93.144531 231.847656 94.316406 230.824219 95.632812 230.824219 L 114.652344 230.824219 L 114.652344 209.023438 C 114.652344 207.707031 115.824219 206.679688 117.140625 206.679688 L 139.085938 206.535156 C 140.402344 206.535156 141.425781 207.558594 141.425781 208.875 C 141.425781 210.339844 140.402344 211.363281 139.085938 211.363281 L 119.628906 211.507812 L 119.628906 233.308594 C 119.628906 234.625 118.457031 235.652344 117.140625 235.652344 Z M 117.140625 235.652344 " fill-opacity="1" fill-rule="evenodd"/><path fill="#000000" d="M 85.539062 245.746094 C 78.660156 245.746094 73.101562 240.1875 73.101562 233.308594 C 73.101562 226.433594 78.660156 220.726562 85.539062 220.726562 C 92.414062 220.726562 98.121094 226.433594 98.121094 233.308594 C 98.121094 240.1875 92.414062 245.746094 85.539062 245.746094 Z M 85.539062 225.703125 C 81.292969 225.703125 77.929688 229.066406 77.929688 233.308594 C 77.929688 237.40625 81.441406 240.917969 85.539062 240.917969 C 89.78125 240.917969 93.144531 237.40625 93.144531 233.308594 C 93.144531 229.066406 89.78125 225.703125 85.539062 225.703125 Z M 85.539062 225.703125 " fill-opacity="1" fill-rule="evenodd"/><path fill="#000000" d="M 290.664062 159.714844 C 283.785156 159.714844 278.226562 154.15625 278.226562 147.28125 C 278.226562 140.257812 283.785156 134.695312 290.664062 134.695312 C 297.539062 134.695312 303.246094 140.257812 303.246094 147.28125 C 303.246094 154.15625 297.539062 159.714844 290.664062 159.714844 Z M 290.664062 139.523438 C 286.566406 139.523438 283.054688 143.035156 283.054688 147.28125 C 283.054688 151.375 286.566406 154.886719 290.664062 154.886719 C 294.90625 154.886719 298.269531 151.375 298.269531 147.28125 C 298.269531 143.035156 294.90625 139.523438 290.664062 139.523438 Z M 290.664062 139.523438 " fill-opacity="1" fill-rule="evenodd"/><path fill="#000000" d="M 237.261719 173.90625 C 235.941406 173.90625 234.773438 172.882812 234.773438 171.566406 C 234.773438 170.25 235.941406 169.078125 237.261719 169.078125 L 256.71875 168.933594 L 256.71875 147.28125 C 256.71875 145.816406 257.742188 144.792969 259.058594 144.792969 L 280.566406 144.792969 C 282.03125 144.792969 283.054688 145.816406 283.054688 147.28125 C 283.054688 148.597656 282.03125 149.621094 280.566406 149.621094 L 261.546875 149.621094 L 261.546875 171.421875 C 261.546875 172.738281 260.523438 173.90625 259.207031 173.90625 Z M 237.261719 173.90625 " fill-opacity="1" fill-rule="evenodd"/><path fill="#000000" d="M 280.566406 235.652344 L 259.058594 235.652344 C 257.742188 235.652344 256.71875 234.625 256.71875 233.308594 L 256.71875 211.507812 L 237.261719 211.363281 C 235.941406 211.363281 234.773438 210.339844 234.773438 208.875 C 234.773438 207.558594 235.941406 206.535156 237.261719 206.535156 L 259.207031 206.679688 C 260.523438 206.679688 261.546875 207.707031 261.546875 209.023438 L 261.546875 230.824219 L 280.566406 230.824219 C 282.03125 230.824219 283.054688 231.847656 283.054688 233.308594 C 283.054688 234.625 282.03125 235.652344 280.566406 235.652344 Z M 280.566406 235.652344 " fill-opacity="1" fill-rule="evenodd"/><path fill="#000000" d="M 290.664062 245.746094 C 283.785156 245.746094 278.226562 240.1875 278.226562 233.308594 C 278.226562 226.433594 283.785156 220.726562 290.664062 220.726562 C 297.539062 220.726562 303.246094 226.433594 303.246094 233.308594 C 303.246094 240.1875 297.539062 245.746094 290.664062 245.746094 Z M 290.664062 225.703125 C 286.566406 225.703125 283.054688 229.066406 283.054688 233.308594 C 283.054688 237.40625 286.566406 240.917969 290.664062 240.917969 C 294.90625 240.917969 298.269531 237.40625 298.269531 233.308594 C 298.269531 229.066406 294.90625 225.703125 290.664062 225.703125 Z M 290.664062 225.703125 " fill-opacity="1" fill-rule="evenodd"/><path fill="#000000" d="M 289.785156 190.003906 L 240.480469 190.003906 C 239.160156 190.003906 237.992188 188.976562 237.992188 187.515625 C 237.992188 186.199219 239.160156 185.171875 240.480469 185.171875 L 289.785156 185.171875 C 291.101562 185.171875 292.273438 186.199219 292.273438 187.515625 C 292.273438 188.976562 291.25 190.003906 289.785156 190.003906 Z M 135.867188 190.003906 L 85.246094 190.003906 C 83.929688 190.003906 82.902344 188.976562 82.902344 187.515625 C 82.902344 186.199219 83.929688 185.171875 85.246094 185.171875 L 135.867188 185.171875 C 137.183594 185.171875 138.355469 186.199219 138.355469 187.515625 C 138.355469 188.976562 137.183594 190.003906 135.867188 190.003906 Z M 135.867188 190.003906 " fill-opacity="1" fill-rule="evenodd"/><g clip-path="url(#50cc130040)"><path fill="#000000" d="M 299.878906 200.097656 C 293.003906 200.097656 287.445312 194.390625 287.445312 187.515625 C 287.445312 180.636719 293.003906 175.078125 299.878906 175.078125 C 306.757812 175.078125 312.464844 180.636719 312.464844 187.515625 C 312.464844 194.390625 306.757812 200.097656 299.878906 200.097656 Z M 299.878906 179.90625 C 295.636719 179.90625 292.273438 183.417969 292.273438 187.515625 C 292.273438 191.757812 295.636719 195.121094 299.878906 195.121094 C 304.125 195.121094 307.488281 191.757812 307.488281 187.515625 C 307.488281 183.417969 304.125 179.90625 299.878906 179.90625 Z M 299.878906 179.90625 " fill-opacity="1" fill-rule="evenodd"/></g><path fill="#000000" d="M 195.5625 219.996094 L 179.613281 219.996094 C 178.152344 219.996094 177.125 218.824219 177.125 217.507812 L 177.125 209.609375 C 175.957031 209.023438 174.785156 208.4375 173.617188 207.558594 L 166.886719 211.65625 C 165.714844 212.242188 164.105469 211.800781 163.519531 210.632812 L 155.472656 196.878906 C 155.179688 196.292969 155.035156 195.5625 155.179688 194.976562 C 155.472656 194.390625 155.765625 193.804688 156.351562 193.511719 L 163.226562 189.5625 C 163.226562 188.832031 163.226562 188.246094 163.226562 187.515625 C 163.226562 186.929688 163.226562 186.199219 163.226562 185.613281 L 156.351562 181.664062 C 155.179688 180.929688 154.886719 179.46875 155.472656 178.296875 L 163.519531 164.398438 C 164.105469 163.226562 165.714844 162.789062 166.886719 163.519531 L 173.617188 167.46875 C 174.785156 166.738281 175.957031 166.007812 177.125 165.570312 L 177.125 157.667969 C 177.125 156.203125 178.152344 155.179688 179.613281 155.179688 L 195.5625 155.179688 C 196.878906 155.179688 198.050781 156.203125 198.050781 157.667969 L 198.050781 165.570312 C 199.21875 166.007812 200.390625 166.738281 201.414062 167.46875 L 208.289062 163.519531 C 209.460938 162.933594 210.925781 163.226562 211.65625 164.398438 L 219.554688 178.296875 C 219.996094 178.882812 219.996094 179.46875 219.847656 180.199219 C 219.703125 180.785156 219.265625 181.371094 218.679688 181.664062 L 211.949219 185.613281 C 211.949219 186.199219 211.949219 186.929688 211.949219 187.515625 C 211.949219 188.246094 211.949219 188.832031 211.949219 189.5625 L 218.679688 193.511719 C 219.265625 193.804688 219.703125 194.390625 219.847656 194.976562 C 219.996094 195.5625 219.996094 196.292969 219.554688 196.878906 L 211.65625 210.632812 C 210.925781 211.800781 209.460938 212.242188 208.289062 211.65625 L 201.414062 207.707031 C 200.390625 208.4375 199.21875 209.023438 198.050781 209.609375 L 198.050781 217.507812 C 198.050781 218.824219 196.878906 219.996094 195.5625 219.996094 Z M 181.953125 215.019531 L 193.074219 215.019531 L 193.074219 208 C 193.074219 206.972656 193.804688 206.097656 194.683594 205.804688 C 196.441406 205.070312 198.195312 204.046875 199.804688 202.878906 C 200.535156 202.144531 201.558594 202.144531 202.4375 202.585938 L 208.582031 206.097656 L 214.144531 196.441406 L 208 192.929688 C 207.121094 192.488281 206.679688 191.464844 206.828125 190.441406 C 206.972656 189.5625 207.121094 188.539062 207.121094 187.515625 C 207.121094 186.636719 206.972656 185.613281 206.828125 184.589844 C 206.679688 183.710938 207.121094 182.6875 208 182.101562 L 214.144531 178.589844 L 208.582031 168.933594 L 202.4375 172.445312 C 201.558594 173.03125 200.535156 172.882812 199.804688 172.296875 C 198.195312 171.128906 196.441406 170.105469 194.683594 169.371094 C 193.804688 169.078125 193.074219 168.054688 193.074219 167.179688 L 193.074219 160.007812 L 181.953125 160.007812 L 181.953125 167.179688 C 181.953125 168.054688 181.371094 169.078125 180.492188 169.371094 C 178.589844 170.105469 176.980469 171.128906 175.371094 172.296875 C 174.640625 172.882812 173.46875 173.03125 172.589844 172.445312 L 166.445312 168.933594 L 160.886719 178.589844 L 167.03125 182.101562 C 167.910156 182.6875 168.347656 183.710938 168.203125 184.589844 C 168.054688 185.613281 168.054688 186.636719 168.054688 187.515625 C 168.054688 188.539062 168.054688 189.5625 168.203125 190.441406 C 168.347656 191.464844 167.910156 192.488281 167.03125 192.929688 L 160.886719 196.441406 L 166.445312 206.097656 L 172.589844 202.585938 C 173.46875 202.144531 174.640625 202.144531 175.371094 202.878906 C 176.980469 204.046875 178.589844 205.070312 180.492188 205.804688 C 181.371094 206.097656 181.953125 206.972656 181.953125 208 Z M 181.953125 215.019531 " fill-opacity="1" fill-rule="evenodd"/><path fill="#000000" d="M 187.515625 203.753906 C 178.589844 203.753906 171.421875 196.441406 171.421875 187.515625 C 171.421875 178.589844 178.589844 171.421875 187.515625 171.421875 C 196.441406 171.421875 203.753906 178.589844 203.753906 187.515625 C 203.753906 196.441406 196.441406 203.753906 187.515625 203.753906 Z M 187.515625 176.25 C 181.371094 176.25 176.25 181.371094 176.25 187.515625 C 176.25 193.804688 181.371094 198.78125 187.515625 198.78125 C 193.804688 198.78125 198.78125 193.804688 198.78125 187.515625 C 198.78125 181.371094 193.804688 176.25 187.515625 176.25 Z M 187.515625 176.25 " fill-opacity="1" fill-rule="evenodd"/><path fill="#000000" d="M 188.246094 244.429688 C 157.960938 244.429688 133.378906 219.847656 133.378906 189.5625 C 133.378906 159.421875 157.960938 134.84375 188.246094 134.84375 C 218.386719 134.84375 242.964844 159.421875 242.964844 189.5625 C 242.964844 219.847656 218.386719 244.429688 188.246094 244.429688 Z M 188.246094 139.671875 C 160.59375 139.671875 138.207031 162.058594 138.207031 189.5625 C 138.207031 217.070312 160.59375 239.453125 188.246094 239.453125 C 215.753906 239.453125 238.136719 217.070312 238.136719 189.5625 C 238.136719 162.058594 215.753906 139.671875 188.246094 139.671875 Z M 188.246094 139.671875 " fill-opacity="1" fill-rule="evenodd"/><path fill="#000000" d="M 187.515625 292.273438 C 186.199219 292.273438 185.171875 291.25 185.171875 289.785156 L 185.171875 241.941406 C 185.171875 240.625 186.199219 239.453125 187.515625 239.453125 C 188.976562 239.453125 190.003906 240.625 190.003906 241.941406 L 190.003906 289.785156 C 190.003906 291.25 188.976562 292.273438 187.515625 292.273438 Z M 187.515625 138.355469 C 186.199219 138.355469 185.171875 137.183594 185.171875 135.867188 L 185.171875 85.246094 C 185.171875 83.929688 186.199219 82.902344 187.515625 82.902344 C 188.976562 82.902344 190.003906 83.929688 190.003906 85.246094 L 190.003906 135.867188 C 190.003906 137.183594 188.976562 138.355469 187.515625 138.355469 Z M 187.515625 138.355469 " fill-opacity="1" fill-rule="evenodd"/><g clip-path="url(#d8f1912e50)"><path fill="#000000" d="M 187.515625 312.464844 C 180.636719 312.464844 175.078125 306.757812 175.078125 299.878906 C 175.078125 293.003906 180.636719 287.445312 187.515625 287.445312 C 194.390625 287.445312 200.097656 293.003906 200.097656 299.878906 C 200.097656 306.757812 194.390625 312.464844 187.515625 312.464844 Z M 187.515625 292.273438 C 183.417969 292.273438 179.90625 295.636719 179.90625 299.878906 C 179.90625 304.125 183.417969 307.488281 187.515625 307.488281 C 191.757812 307.488281 195.121094 304.125 195.121094 299.878906 C 195.121094 295.636719 191.757812 292.273438 187.515625 292.273438 Z M 187.515625 292.273438 " fill-opacity="1" fill-rule="evenodd"/></g><path fill="#000000" d="M 229.796875 301.050781 C 222.921875 301.050781 217.214844 295.34375 217.214844 288.46875 C 217.214844 281.589844 222.921875 276.03125 229.796875 276.03125 C 236.675781 276.03125 242.234375 281.589844 242.234375 288.46875 C 242.234375 295.34375 236.675781 301.050781 229.796875 301.050781 Z M 229.796875 280.859375 C 225.554688 280.859375 222.191406 284.226562 222.191406 288.46875 C 222.191406 292.710938 225.554688 296.078125 229.796875 296.078125 C 234.042969 296.078125 237.40625 292.710938 237.40625 288.46875 C 237.40625 284.226562 234.042969 280.859375 229.796875 280.859375 Z M 229.796875 280.859375 " fill-opacity="1" fill-rule="evenodd"/><path fill="#000000" d="M 229.796875 280.859375 C 228.480469 280.859375 227.3125 279.691406 227.3125 278.371094 L 227.3125 259.351562 L 205.511719 259.351562 C 204.195312 259.351562 203.167969 258.328125 203.167969 256.867188 L 203.023438 239.015625 C 203.023438 237.699219 204.046875 236.527344 205.511719 236.527344 C 206.828125 236.527344 207.851562 237.699219 207.851562 239.015625 L 208 254.523438 L 229.796875 254.523438 C 231.113281 254.523438 232.140625 255.546875 232.140625 256.867188 L 232.140625 278.371094 C 232.140625 279.691406 231.113281 280.859375 229.796875 280.859375 Z M 229.796875 280.859375 " fill-opacity="1" fill-rule="evenodd"/><path fill="#000000" d="M 143.769531 280.859375 C 142.453125 280.859375 141.28125 279.691406 141.28125 278.371094 L 141.28125 256.867188 C 141.28125 255.546875 142.453125 254.523438 143.769531 254.523438 L 165.570312 254.523438 L 165.570312 237.84375 C 165.570312 236.527344 166.738281 235.503906 168.054688 235.503906 C 169.371094 235.503906 170.398438 236.527344 170.398438 237.992188 L 170.398438 256.867188 C 170.398438 258.328125 169.226562 259.351562 167.910156 259.351562 L 146.109375 259.351562 L 146.109375 278.371094 C 146.109375 279.691406 145.085938 280.859375 143.769531 280.859375 Z M 143.769531 280.859375 " fill-opacity="1" fill-rule="evenodd"/><path fill="#000000" d="M 143.769531 301.050781 C 136.890625 301.050781 131.1875 295.34375 131.1875 288.46875 C 131.1875 281.589844 136.890625 276.03125 143.769531 276.03125 C 150.644531 276.03125 156.203125 281.589844 156.203125 288.46875 C 156.203125 295.34375 150.644531 301.050781 143.769531 301.050781 Z M 143.769531 280.859375 C 139.523438 280.859375 136.160156 284.226562 136.160156 288.46875 C 136.160156 292.710938 139.523438 296.078125 143.769531 296.078125 C 147.863281 296.078125 151.375 292.710938 151.375 288.46875 C 151.375 284.226562 147.863281 280.859375 143.769531 280.859375 Z M 143.769531 280.859375 " fill-opacity="1" fill-rule="evenodd"/><path fill="#000000" d="M 229.796875 103.242188 C 222.921875 103.242188 217.214844 97.679688 217.214844 90.804688 C 217.214844 83.78125 222.921875 78.222656 229.796875 78.222656 C 236.675781 78.222656 242.234375 83.78125 242.234375 90.804688 C 242.234375 97.679688 236.675781 103.242188 229.796875 103.242188 Z M 229.796875 83.050781 C 225.554688 83.050781 222.191406 86.5625 222.191406 90.804688 C 222.191406 94.902344 225.554688 98.414062 229.796875 98.414062 C 234.042969 98.414062 237.40625 94.902344 237.40625 90.804688 C 237.40625 86.5625 234.042969 83.050781 229.796875 83.050781 Z M 229.796875 83.050781 " fill-opacity="1" fill-rule="evenodd"/><path fill="#000000" d="M 205.511719 142.597656 C 204.046875 142.597656 203.023438 141.574219 203.023438 140.257812 L 203.167969 122.261719 C 203.167969 120.945312 204.195312 119.917969 205.511719 119.917969 L 227.3125 119.917969 L 227.3125 100.753906 C 227.3125 99.4375 228.480469 98.414062 229.796875 98.414062 C 231.113281 98.414062 232.140625 99.4375 232.140625 100.753906 L 232.140625 122.261719 C 232.140625 123.722656 231.113281 124.75 229.796875 124.75 L 208 124.75 L 207.851562 140.257812 C 207.851562 141.574219 206.828125 142.597656 205.511719 142.597656 Z M 205.511719 142.597656 " fill-opacity="1" fill-rule="evenodd"/><path fill="#000000" d="M 168.054688 143.769531 C 166.738281 143.769531 165.570312 142.597656 165.570312 141.28125 L 165.570312 124.75 L 143.769531 124.75 C 142.453125 124.75 141.28125 123.722656 141.28125 122.261719 L 141.28125 100.753906 C 141.28125 99.4375 142.453125 98.414062 143.769531 98.414062 C 145.085938 98.414062 146.109375 99.4375 146.109375 100.753906 L 146.109375 119.917969 L 167.910156 119.917969 C 169.226562 119.917969 170.398438 120.945312 170.398438 122.261719 L 170.398438 141.28125 C 170.398438 142.597656 169.371094 143.769531 168.054688 143.769531 Z M 168.054688 143.769531 " fill-opacity="1" fill-rule="evenodd"/><path fill="#000000" d="M 143.769531 103.242188 C 136.890625 103.242188 131.1875 97.679688 131.1875 90.804688 C 131.1875 83.78125 136.890625 78.222656 143.769531 78.222656 C 150.644531 78.222656 156.203125 83.78125 156.203125 90.804688 C 156.203125 97.679688 150.644531 103.242188 143.769531 103.242188 Z M 143.769531 83.050781 C 139.523438 83.050781 136.160156 86.5625 136.160156 90.804688 C 136.160156 94.902344 139.523438 98.414062 143.769531 98.414062 C 147.863281 98.414062 151.375 94.902344 151.375 90.804688 C 151.375 86.5625 147.863281 83.050781 143.769531 83.050781 Z M 143.769531 83.050781 " fill-opacity="1" fill-rule="evenodd"/><path fill="#000000" d="M 188.246094 235.652344 C 162.789062 235.652344 142.160156 215.019531 142.160156 189.5625 C 142.160156 164.25 162.789062 143.621094 188.246094 143.621094 C 213.558594 143.621094 234.1875 164.25 234.1875 189.5625 C 234.1875 215.019531 213.558594 235.652344 188.246094 235.652344 Z M 188.246094 148.449219 C 165.421875 148.449219 146.988281 166.886719 146.988281 189.5625 C 146.988281 212.242188 165.421875 230.824219 188.246094 230.824219 C 210.925781 230.824219 229.359375 212.242188 229.359375 189.5625 C 229.359375 166.886719 210.925781 148.449219 188.246094 148.449219 Z M 188.246094 148.449219 " fill-opacity="1" fill-rule="evenodd"/></svg>